<svg width="24" height="24" viewBox="0 0 24 24" fill="none" xmlns="http://www.w3.org/2000/svg">
<path d="M8 18V15M12 13V18M16 18V11M6.5 11.5L7.9646 9.7913C8.91547 8.68196 10.3837 8.16067 11.8212 8.42204V8.42204C13.8121 8.78401 15.8538 8.14622 17.2846 6.71542L17.5 6.5M12 21V21C14.7956 21 16.1935 21 17.2961 20.5433C18.7663 19.9343 19.9343 18.7663 20.5433 17.2961C21 16.1935 21 14.7956 21 12V12C21 9.20435 21 7.80653 20.5433 6.70391C19.9343 5.23373 18.7663 4.06569 17.2961 3.45672C16.1935 3 14.7956 3 12 3V3C9.20435 3 7.80653 3 6.70391 3.45672C5.23373 4.06569 4.06569 5.23373 3.45672 6.70391C3 7.80653 3 9.20435 3 12V12C3 14.7956 3 16.1935 3.45672 17.2961C4.06569 18.7663 5.23373 19.9343 6.70391 20.5433C7.80653 21 9.20435 21 12 21Z" stroke="#1C1D1D" stroke-width="2.25" stroke-linecap="round" stroke-linejoin="round"/>
</svg>
