<svg width="24" height="24" viewBox="0 0 24 24" fill="none" xmlns="http://www.w3.org/2000/svg">
<path d="M9 5V5C5.68629 5 3 7.68629 3 11V13C3 13.4643 3 13.6964 3.01028 13.8925C3.21118 17.7259 6.2741 20.7888 10.1075 20.9897C10.3036 21 10.5357 21 11 21H13C13.4643 21 13.6964 21 13.8925 20.9897C17.7259 20.7888 20.7888 17.7259 20.9897 13.8925C21 13.6964 21 13.4643 21 13V11C21 7.68629 18.3137 5 15 5V5M9 5V6.5M9 5V3M9 5H15M15 5V3M15 5V6.5M12 17V10M7.5 17V10M16.5 17V10" stroke="#1C1D1D" stroke-width="2.25" stroke-linecap="round" stroke-linejoin="round"/>
</svg>
