<svg width="24" height="24" viewBox="0 0 24 24" fill="none" xmlns="http://www.w3.org/2000/svg">
<path d="M5.63604 7.36396C6.6214 6.3786 7.11408 5.88592 7.59161 5.53898C10.2203 3.62915 13.7797 3.62915 16.4084 5.53898C16.8859 5.88592 17.3786 6.3786 18.364 7.36396V7.36396C18.7958 7.79577 19.0117 8.01167 19.203 8.23574C20.2317 9.44011 20.8526 10.9392 20.9769 12.5182C21 12.8119 21 13.1173 21 13.7279V18C21 19.6569 19.6569 21 18 21V21C16.3431 21 15 19.6569 15 18V17C15 15.3431 13.6569 14 12 14V14C10.3431 14 9 15.3431 9 17V18C9 19.6569 7.65685 21 6 21V21C4.34315 21 3 19.6569 3 18V13.7279C3 13.1173 3 12.8119 3.02312 12.5182C3.14739 10.9392 3.76833 9.44011 4.79696 8.23574C4.98833 8.01167 5.20423 7.79577 5.63604 7.36396V7.36396Z" stroke="#1C1D1D" stroke-width="2.25" stroke-linejoin="round"/>
</svg>
