<svg width="24" height="24" viewBox="0 0 24 24" fill="none" xmlns="http://www.w3.org/2000/svg">
<path d="M9.75 8C9.75 8.55228 9.30228 9 8.75 9C8.19772 9 7.75 8.55228 7.75 8C7.75 7.44772 8.19772 7 8.75 7C9.30228 7 9.75 7.44772 9.75 8Z" fill="#1C1D1D"/>
<path d="M12 8H15.5M8.5 12H15.5M8.5 16H15.5M12 21V21C14.3317 21 15.4976 21 16.4018 20.5784C17.3606 20.1313 18.1313 19.3606 18.5784 18.4018C19 17.4976 19 16.3317 19 14V10C19 7.66825 19 6.50238 18.5784 5.59822C18.1313 4.63938 17.3606 3.86873 16.4018 3.42161C15.4976 3 14.3317 3 12 3V3C9.66825 3 8.50238 3 7.59822 3.42161C6.63938 3.86873 5.86873 4.63938 5.42161 5.59822C5 6.50238 5 7.66825 5 10V14C5 16.3317 5 17.4976 5.42161 18.4018C5.86873 19.3606 6.63938 20.1313 7.59822 20.5784C8.50238 21 9.66825 21 12 21Z" stroke="#1C1D1D" stroke-width="2.25" stroke-linecap="round" stroke-linejoin="round"/>
</svg>
