<svg width="24" height="24" viewBox="0 0 24 24" fill="none" xmlns="http://www.w3.org/2000/svg">
<path d="M18.1579 9.01929V14.3455C18.1579 15.3072 18.1579 15.788 17.9796 16.2088C17.9209 16.3473 17.8485 16.4796 17.7635 16.6036C17.505 16.9805 17.0999 17.2395 16.2897 17.7576L14.1818 19.1054C13.2427 19.7059 12.7731 20.0061 12.2555 20.0653C12.0857 20.0847 11.9143 20.0847 11.7446 20.0653C11.2269 20.0061 10.7573 19.7059 9.81823 19.1054L7.71034 17.7576C6.90012 17.2395 6.49501 16.9805 6.23655 16.6036C6.15148 16.4796 6.07906 16.3473 6.02038 16.2088C5.84211 15.788 5.84211 15.3072 5.84211 14.3455V9.01928M21 7.64334L13.6935 4.28003C12.9542 3.93973 12.5846 3.76959 12.1939 3.73579C12.0649 3.72463 11.9351 3.72463 11.8061 3.73579C11.4154 3.76959 11.0458 3.93973 10.3065 4.28003L3 7.64334L10.2352 11.1461C11.0043 11.5184 11.3888 11.7046 11.7974 11.7415C11.9322 11.7537 12.0678 11.7537 12.2026 11.7415C12.6112 11.7046 12.9957 11.5184 13.7648 11.1461L21 7.64334ZM21 7.64334V16.2255C21 17.1069 21 17.5476 20.847 17.941C20.7965 18.0708 20.7342 18.1955 20.6606 18.3137C20.4377 18.6722 20.0851 18.9366 19.38 19.4655L18.75 19.938" stroke="#1C1D1D" stroke-width="2.25" stroke-linecap="round" stroke-linejoin="round"/>
</svg>
