<svg width="56" height="55" viewBox="0 0 56 55" fill="none" xmlns="http://www.w3.org/2000/svg">
<rect x="0.5" y="0.5" width="55" height="54" rx="10.5" fill="white" stroke="#E7EAE9"/>
<path fill-rule="evenodd" clip-rule="evenodd" d="M34.3358 17.6642L24.5858 27.4142C24.2107 27.7892 24 28.298 24 28.8284V31C24 31.5522 24.4477 32 25 32H27.1716C27.702 32 28.2107 31.7893 28.5858 31.4142L38.3358 21.6642C39.1168 20.8831 39.1168 19.6168 38.3358 18.8357L37.1642 17.6642C36.3832 16.8831 35.1168 16.8831 34.3358 17.6642ZM27.5251 30.3535C27.4314 30.4473 27.3042 30.5 27.1716 30.5H25.5V28.8284C25.5 28.6958 25.5527 28.5686 25.6465 28.4748L35.3964 18.7248C35.5917 18.5295 35.9083 18.5296 36.1036 18.7248L37.2751 19.8964C37.4704 20.0916 37.4704 20.4082 37.2751 20.6035L27.5251 30.3535Z" fill="black"/>
<path d="M27 18.75C27 19.1642 26.6642 19.5 26.25 19.5H21C20.7239 19.5 20.5 19.7239 20.5 20V35.0001C20.5 35.2762 20.7239 35.5001 21 35.5001H36C36.2761 35.5001 36.5 35.2762 36.5 35.0001V29.7501C36.5 29.3358 36.8358 29.0001 37.25 29.0001C37.6642 29.0001 38 29.3358 38 29.7501V35.0001C38 36.1046 37.1046 37.0001 36 37.0001H21C19.8954 37.0001 19 36.1046 19 35.0001V20C19 18.8954 19.8954 18 21 18H26.25C26.6642 18 27 18.3358 27 18.75Z" fill="black"/>
</svg>
