<svg width="24" height="24" viewBox="0 0 24 24" fill="none" xmlns="http://www.w3.org/2000/svg">
<path d="M3 12V8.9225C3 7.59983 3 6.9385 3.13798 6.39422C3.54374 4.79358 4.79358 3.54374 6.39422 3.13798C6.9385 3 7.59983 3 8.9225 3H9.39922C9.4212 3 9.43219 3 9.4429 3.00005C10.45 3.00484 11.4264 3.34735 12.2159 3.97275C12.2243 3.9794 12.2328 3.98627 12.25 4V4C12.2672 4.01373 12.2757 4.0206 12.2841 4.02725C13.0736 4.65265 14.05 4.99516 15.0571 4.99995C15.0678 5 15.0788 5 15.1008 5H15.4477C16.4255 5 16.9144 5 17.3219 5.07569C19.1523 5.4157 20.5843 6.84774 20.9243 8.67814C21 9.08558 21 9.5745 21 10.5523V12M9.39922 7H8.9225C7.59983 7 6.9385 7 6.39422 7.13798C4.79358 7.54374 3.54374 8.79358 3.13798 10.3942C3 10.9385 3 11.5998 3 12.9225V14C3 16.3317 3 17.4976 3.42161 18.4018C3.86873 19.3606 4.63938 20.1313 5.59822 20.5784C6.50238 21 7.66825 21 10 21H15C16.395 21 17.0924 21 17.6647 20.8467C19.2176 20.4306 20.4306 19.2176 20.8467 17.6647C21 17.0924 21 16.395 21 15V14.5523C21 13.5745 21 13.0856 20.9243 12.6781C20.5843 10.8477 19.1523 9.4157 17.3219 9.07569C16.9144 9 16.4255 9 15.4477 9H15.1008C15.0788 9 15.0678 9 15.0571 8.99995C14.05 8.99516 13.0736 8.65265 12.2841 8.02725C12.2757 8.0206 12.2672 8.01373 12.25 8V8C12.2328 7.98627 12.2243 7.9794 12.2159 7.97275C11.4264 7.34735 10.45 7.00484 9.4429 7.00005C9.43219 7 9.4212 7 9.39922 7Z" stroke="#1C1D1D" stroke-width="2.25" stroke-linecap="round" stroke-linejoin="round"/>
</svg>
