<svg width="17" height="17" viewBox="0 0 17 17" fill="none" xmlns="http://www.w3.org/2000/svg">
<path fill-rule="evenodd" clip-rule="evenodd" d="M2.125 4.46217C2.125 3.90231 2.45471 3.39498 2.9663 3.1676L7.92462 0.963899C8.29097 0.801096 8.70903 0.801096 9.07538 0.963899L14.0337 3.1676C14.5453 3.39498 14.875 3.90231 14.875 4.46217V9.20821C14.875 13.3708 10.382 15.5365 8.93988 16.1244C8.65605 16.2401 8.34402 16.2401 8.06012 16.1244C6.61804 15.5365 2.125 13.3708 2.125 9.20821V4.46217ZM11.6875 6.02068C11.895 6.22814 11.895 6.56451 11.6875 6.77198L8.1673 10.2922C7.95983 10.4996 7.62351 10.4996 7.41604 10.2922L5.66667 8.5428C5.4592 8.33533 5.4592 7.99901 5.66667 7.79154C5.87413 7.58407 6.2105 7.58407 6.41797 7.79154L7.79167 9.16521L10.9362 6.02068C11.1436 5.81321 11.48 5.81321 11.6875 6.02068Z" fill="#3DA864"/>
</svg>
